<svg width="58" height="83" viewBox="0 0 58 83" fill="none" xmlns="http://www.w3.org/2000/svg">
<g clip-path="url(#clip0_1842_6230)">
<path fill-rule="evenodd" clip-rule="evenodd" d="M0 83.3136H57.9631V61.5758H0V83.3136ZM58 58H0V0H58V58Z" fill="#111716"/>
<path fill-rule="evenodd" clip-rule="evenodd" d="M27.8695 28.9754C27.8695 29.4547 28.1644 29.8602 28.5945 30.0199L30.5975 30.7941L42.8733 26.0386C44.1513 25.5593 45.0606 24.3182 45.0606 22.8682C45.0606 22.2047 44.864 21.578 44.5322 21.0496C44.139 21.664 43.5614 22.1432 42.8733 22.4013L28.6068 27.9309C28.189 28.0907 27.8818 28.4962 27.8818 28.9754M15.1144 32.1458C14.4263 31.8877 13.8487 31.4085 13.4555 30.7941C13.1237 31.3225 12.9271 31.9369 12.9271 32.6127C12.9271 34.0627 13.8364 35.3038 15.1144 35.7831L27.3411 40.4648L29.3809 39.703C29.7987 39.5432 30.1059 39.1377 30.1059 38.6585C30.1059 38.1792 29.811 37.7737 29.3809 37.614L15.1144 32.1458ZM42.8733 41.8657L0 57.9508V58H9.56017L42.861 45.4907C44.139 45.0114 45.0483 43.7703 45.0483 42.3203C45.0483 41.6568 44.8517 41.0301 44.5199 40.5017C44.1267 41.1161 43.5492 41.5953 42.861 41.8534M29.3686 20.3246C29.7864 20.1648 30.0936 19.7593 30.0936 19.2801C30.0936 18.8008 29.7987 18.3953 29.3686 18.2356L0 7.25V10.8873L27.3288 21.1233L29.3686 20.3369V20.3246Z" fill="#65BC4B"/>
<path fill-rule="evenodd" clip-rule="evenodd" d="M45.0483 38.6953C45.0483 40.1453 44.139 41.3864 42.861 41.8657L0 57.9508V50.7008L29.3686 39.6907C29.7864 39.5309 30.0936 39.1254 30.0936 38.6462C30.0936 38.167 29.7987 37.7614 29.3686 37.6017L15.1021 32.1335C13.8242 31.6542 12.9148 30.4131 12.9148 28.9631C12.9148 27.5131 13.8242 26.272 15.1021 25.7928L29.3686 20.3246C29.7864 20.1648 30.0936 19.7593 30.0936 19.2801C30.0936 18.8008 29.7987 18.3953 29.3686 18.2356L0 7.25V0L42.861 16.0606C44.139 16.5398 45.0483 17.7809 45.0483 19.2309C45.0483 20.6809 44.139 21.922 42.861 22.4013L28.5945 27.9309C28.1767 28.0907 27.8695 28.4962 27.8695 28.9754C27.8695 29.4547 28.1644 29.8602 28.5945 30.0199L42.861 35.525C44.139 36.0042 45.0483 37.2453 45.0483 38.6953ZM40.5631 67.0441C40.5631 67.4619 40.4402 67.7691 40.1822 67.9534C39.9241 68.15 39.5186 68.2483 38.978 68.2483H36.4589V65.8398H39.0763C39.5678 65.8398 39.9364 65.9381 40.1945 66.147C40.4402 66.3559 40.5631 66.6508 40.5631 67.0441ZM31.2119 77.2064C31.433 77.4398 31.5436 77.8085 31.5436 78.3246C31.5436 78.8407 31.4208 79.197 31.1873 79.4182C30.9538 79.6394 30.5729 79.7623 30.0445 79.7623H29.1352V76.85H30.1797C30.6466 76.85 30.9907 76.9729 31.1996 77.2064M6.80763 77.2064C7.02881 77.4398 7.13941 77.8085 7.13941 78.3246C7.13941 78.8407 7.01652 79.197 6.78305 79.4182C6.54958 79.6394 6.16864 79.7623 5.64025 79.7623H4.73093V76.85H5.77542C6.24237 76.85 6.58644 76.9729 6.79534 77.2064M8.2822 78.3123C8.2822 77.5504 8.0733 76.9852 7.65551 76.6042C7.23771 76.2356 6.61102 76.039 5.76313 76.039H3.61271V80.561H5.45593C5.95975 80.561 6.35296 80.5242 6.6233 80.4627C6.90593 80.4013 7.15169 80.303 7.37288 80.1555C7.6678 79.9589 7.88898 79.7131 8.03644 79.3936C8.19619 79.0742 8.26991 78.7178 8.26991 78.3M13.2958 79.7254H10.2852V78.5581H12.9148V77.7839H10.2852V76.8254H13.1606V76.039H9.16695V80.561H13.2958V79.7254ZM14.0699 64.2669H10.8873L8.84746 71.1729L6.78305 64.2669H3.61271V73.3356H5.61568V66.0241L7.75381 73.3356H9.9411L12.0547 66.0241V73.3356H14.0576V64.2669H14.0699ZM16.2326 73.3356H24.0479V71.6521H18.3462V69.3174H23.3229V67.7691H18.3462V65.8398H23.7898V64.2669H16.2326V73.3356ZM21.8606 76.039H20.1771L19.0958 79.4797L18.0021 76.039H16.3309V80.561H17.3877V76.9114L18.5182 80.561H19.6733L20.7915 76.9114V80.561H21.8483V76.039H21.8606ZM27.1322 79.7254H24.1216V78.5581H26.7513V77.7839H24.1216V76.8254H26.997V76.039H23.0034V80.561H27.1322V79.7254ZM32.6619 78.3C32.6619 77.5381 32.453 76.9729 32.0352 76.5919C31.6174 76.2233 30.9907 76.0267 30.1428 76.0267H27.9924V80.5487H29.8479C30.3517 80.5487 30.7449 80.5119 31.0152 80.4504C31.2979 80.389 31.5436 80.2907 31.7648 80.1432C32.0597 79.9466 32.2809 79.7008 32.4284 79.3814C32.5758 79.0619 32.6619 78.7055 32.6619 78.2877M33.0551 64.2547H24.7483V65.8767H27.8449V73.3233H29.983V65.8767H33.0551V64.2547ZM37.6877 79.7131H34.6771V78.5458H37.3068V77.7716H34.6771V76.8131H37.5525V76.0267H33.5589V80.5487H37.6877V79.7131ZM42.3695 79.7131H39.6784V76.0267H38.5479V80.5487H42.3695V79.7131ZM42.861 73.053C42.603 72.9424 42.4678 72.6106 42.4555 72.0699V72.0331L42.4063 70.964C42.3818 70.3619 42.2712 69.9072 42.0746 69.6246C41.878 69.3419 41.5585 69.1208 41.1161 68.9856C41.6199 68.8504 42.0008 68.5924 42.2589 68.2237C42.5292 67.8551 42.6644 67.3881 42.6644 66.8352C42.6644 65.9627 42.3941 65.3237 41.8411 64.8936C41.3004 64.4759 40.4525 64.2547 39.322 64.2547H34.2716V73.3233H36.4097V69.7966H38.683C39.2483 69.7966 39.6538 69.8949 39.8627 70.0915C40.0839 70.2881 40.2068 70.6691 40.2314 71.2343L40.2559 72.1928C40.2559 72.4508 40.2928 72.672 40.3297 72.8564C40.3665 73.0407 40.428 73.2004 40.5017 73.3233H42.8487V73.0407L42.861 73.053ZM46.8055 79.7131H44.1144V76.0267H42.9839V80.5487H46.8055V79.7131ZM48.5873 76.0267H47.4568V80.5487H48.5873V76.0267ZM49.128 74.4907H48.1695L47.4322 75.6212H47.9606L49.128 74.4907ZM54.3136 76.0267H53.1953V79.1356L50.9589 76.0267H49.7792V80.5487H50.8974V77.4398L53.1462 80.5487H54.3136V76.0267ZM54.3504 68.8013C54.3504 67.339 53.8958 66.1839 52.9619 65.3237C52.0402 64.4636 50.7991 64.0335 49.2508 64.0335C47.7025 64.0335 46.4614 64.4636 45.5398 65.3237C44.6182 66.1839 44.1636 67.3513 44.1636 68.8136C44.1636 70.2758 44.6182 71.4309 45.5398 72.2911C46.4614 73.1513 47.6903 73.5814 49.2508 73.5814C50.8114 73.5814 52.0402 73.1513 52.9619 72.2911C53.8835 71.4309 54.3504 70.2636 54.3504 68.8136M51.4013 66.4911C51.9174 67.0441 52.1754 67.8182 52.1754 68.8136C52.1754 69.8089 51.9174 70.5831 51.4013 71.136C50.8852 71.689 50.1725 71.9593 49.2386 71.9593C48.3047 71.9593 47.6165 71.689 47.1004 71.136C46.5966 70.5831 46.3386 69.8089 46.3386 68.8136C46.3386 67.8182 46.5966 67.0318 47.1004 66.4911C47.6042 65.9381 48.3169 65.6678 49.2386 65.6678C50.1602 65.6678 50.8852 65.9504 51.4013 66.4911Z" fill="white"/>
</g>
<defs>
<clipPath id="clip0_1842_6230">
<rect width="58" height="83" fill="white"/>
</clipPath>
</defs>
</svg>
